<svg xmlns="http://www.w3.org/2000/svg" viewBox="0 0 501.82 126.7"><defs><style>.cls-1{fill:#4d545a;}.cls-2{fill:#e07e27;}.cls-3{fill:#4d555a;}</style></defs><title>BIU logobiu 2019 logo</title><g id="Layer_2" data-name="Layer 2"><g id="Layer_1-2" data-name="Layer 1"><g id="BIU_logo" data-name="BIU logo"><g id="Icon"><path class="cls-1" d="M445.06,6.2h0L441,3.86l1-1.53a1.57,1.57,0,0,0-.55-2.06h-.27s-1.37-.83-2.06.41l-1,1.65-.42-.27a2,2,0,0,0-2.73.7L418.67,30.5a1.92,1.92,0,0,0,.68,2.76l.54.13-.95,1.66a1.28,1.28,0,0,0,.55,1.93l.28.15a1.39,1.39,0,0,0,2-.55l.82-1.53,4.1,2.35-.82,1.51a1.44,1.44,0,0,0,.55,2.08l.14.13a1.52,1.52,0,0,0,2-.55l1-1.51.4.28a2.15,2.15,0,0,0,2.88-.83l16.29-27.75a1.87,1.87,0,0,0-.84-2.63l-.4-.28.82-1.51a1.44,1.44,0,0,0-.55-2.08l-.15-.12a1.51,1.51,0,0,0-2,.55Z"/><path class="cls-1" d="M397.61,13.8h0a2.66,2.66,0,0,0-3.15-.56l-10.8,6.22a1.58,1.58,0,0,0-.54,2.49l38.69,45.39a2.44,2.44,0,0,0,3.15.55l10.8-6.07s1.78-1.1.54-2.61Z"/><path class="cls-1" d="M389.41,33.82h0a52.82,52.82,0,0,0-15.74,33.94H390a2.22,2.22,0,0,0,2.19-1.93,31.14,31.14,0,0,1,9-18.36Z"/><path class="cls-1" d="M479.39,85.85h0l2.19-12.16s.27-2.06-1.64-2.06h-4.51a7.15,7.15,0,0,0,.13-1.66A51.67,51.67,0,0,0,445.2,23.18L437,37a1.67,1.67,0,0,0,.94,2.48C448.61,43.75,457.38,55.9,457.38,70a6.66,6.66,0,0,1-.14,1.66H422.08a2.55,2.55,0,0,0-2.46,2.06l-2,12.16a1.53,1.53,0,0,0,1.64,1.93h57.71A2.53,2.53,0,0,0,479.39,85.85Z"/><path class="cls-2" d="M501.82,56.45h0c0,38.78-32,70.25-71.39,70.25a71.67,71.67,0,0,1-53.08-23.06,72.57,72.57,0,0,0,48,18.09c39.41,0,71.41-31.46,71.41-70.25A69.35,69.35,0,0,0,478.3,4.26,69.53,69.53,0,0,1,501.82,56.45Z"/></g><g id="Text"><g id="Hebrew"><polygon class="cls-3" points="8.84 54.38 8.84 54.38 2.52 54.38 2.52 22.96 8.84 22.96 8.84 54.38"/><path class="cls-3" d="M19,23h0c-.62,0-1-.43-1-1.47V15.56H11.63v7.2c0,2.95,1.27,4.41,3.57,4.41h4.64c3.38,0,5.06,1.69,5.06,5.06a12.53,12.53,0,0,1-2.53,7.59c-1.68,2.34-3.57,3.6-5.9,3.8a14.18,14.18,0,0,0,0,4.22A14.94,14.94,0,0,0,26.82,43a16.23,16.23,0,0,0,4.63-11.19c0-5.9-2.95-8.85-8.65-8.85Z"/><path class="cls-3" d="M41.69,35h0a17.66,17.66,0,0,1-6.33,2.11V23h6.33Z"/><path class="cls-3" d="M63.17,37.52h0c4.21-1.91,6.32-5.71,6.32-11.61V23H63.17v5.28a12.3,12.3,0,0,1-.62,4.41c-.42,1.07-.85,1.49-1.49,1.49a.87.87,0,0,1-.85-.42L51.78,23H45.45c-.19,0-.42,0-.42.22s0,.42.23.42l7.17,9.28c-4.22,1.69-6.33,5.68-6.33,11.38v3h6.33V41.93A12.33,12.33,0,0,1,53,37.52c.43-1.07.85-1.49,1.49-1.49.2,0,.43.22.62.42l8.44,10.77h6.32c.43,0,.65,0,.65-.23a.66.66,0,0,0-.22-.42Z"/><path class="cls-3" d="M89,33.3h0c0,.84.22,1.27.22,1.69S89,36.25,89,37.29H73.16a7.82,7.82,0,0,1-.23-2.3,6.17,6.17,0,0,1,.23-1.69Z"/><path class="cls-3" d="M110.8,31h0c0-5.26-3-8-8.63-8H92a6.82,6.82,0,0,0-.2,2.1,7.45,7.45,0,0,0,.2,2.11h8c3,0,4.42,1.49,4.42,4.44V47.22h6.32Z"/><path class="cls-3" d="M135.39,43.2h0a12.33,12.33,0,0,1,0,4H113.68v-4h8.63a4.62,4.62,0,0,0,4.22-2.53A11.37,11.37,0,0,0,127.6,35c0-5.29-1.69-7.82-5.29-7.82h-8V23h10.77a8.59,8.59,0,0,1,7.17,3.17,13.49,13.49,0,0,1,2.11,7.59A14.32,14.32,0,0,1,133.28,39a8.53,8.53,0,0,1-3.15,4.22Z"/><path class="cls-3" d="M175.59,32h0c0-6.13-3.15-9.08-9.7-9.08H155.35c-1.46,0-2.11.64-2.11,2.1V40.47a2.4,2.4,0,0,1-.84,2.11,1.83,1.83,0,0,1-1.46.84,3.16,3.16,0,0,1-1.49-.42,12.08,12.08,0,0,0-.85,4,8.83,8.83,0,0,0,3.8.65,7.54,7.54,0,0,0,5.06-1.91,7.65,7.65,0,0,0,2.11-5.49V27.17h4.86a6.16,6.16,0,0,1,3.8,1.07,6.58,6.58,0,0,1,1,4v15h6.32Z"/><path class="cls-3" d="M203.36,35.61h0c0,4-1,7.16-3.17,9.27-1.89,2.11-4.84,3.18-8.44,3.18-8,0-12-4-12-11.61V23h6.32V35.83c0,5.26,1.89,8,5.68,8,3.38,0,5.06-3,5.06-8.43v-3.6c0-2.73-1-4.22-3.15-4.22a6.22,6.22,0,0,0-3.17,1.07,5.72,5.72,0,0,1-1-1.49c-.43-.84-.65-1.46-.85-1.88A11.74,11.74,0,0,1,196,23a6.67,6.67,0,0,1,4.86,1.91c1.69,1.46,2.53,3.57,2.53,6.52Z"/><path class="cls-3" d="M213.62,23h-6.33V37.1A17.59,17.59,0,0,0,213.62,35Z"/><path class="cls-3" d="M240.32,26.75a9.5,9.5,0,0,0-8-3.79H217.77a13.51,13.51,0,0,0,0,4.21h4.84a8.68,8.68,0,0,0-3.38,3.8A11.45,11.45,0,0,0,218,36.25a11.37,11.37,0,0,0,3.6,8.86,12.89,12.89,0,0,0,8.85,3,11.5,11.5,0,0,0,8.64-3.37c2.33-2.34,3.59-5.49,3.59-9.7A15,15,0,0,0,240.32,26.75Zm-9.9,17.09a4.85,4.85,0,0,1-4.64-2.75,9.76,9.76,0,0,1-1.49-5.91c0-5.48,2.11-8.2,5.91-8.2,4,0,5.9,2.72,5.9,8.2C236.1,40.89,234.22,43.84,230.42,43.84Z"/><path class="cls-3" d="M264,31h0c0-5.26-2.73-8-8.63-8H245.2c0,.64-.23,1.26-.23,2.1,0,.65.23,1.49.23,2.11h8.2c3,0,4.45,1.49,4.45,4.44V47.22H264Z"/><path class="cls-3" d="M288.41,43.2h0a6.42,6.42,0,0,1,0,4H266.9v-4h8.66a4.34,4.34,0,0,0,4-2.53A11.4,11.4,0,0,0,280.82,35c0-5.29-1.68-7.82-5.26-7.82h-8c0-.62-.22-1.46-.22-2.11,0-.84.22-1.46.22-2.1H278.1c3.37,0,5.67,1.06,7.36,3.17a13.41,13.41,0,0,1,1.91,7.59,14.81,14.81,0,0,1-.84,5.26,8.56,8.56,0,0,1-3.18,4.22Z"/><path class="cls-3" d="M298.52,23H292V37.1A18.84,18.84,0,0,0,298.52,35Z"/><path class="cls-3" d="M315.82,44.46h0c0,1.91-.85,2.76-2.76,2.76H302.32c0-.43-.22-1.07-.22-1.91,0-1.05.22-1.69.22-2.11h6.75a.45.45,0,0,0,.42-.43v-12c0-2.53-1.07-3.6-2.95-3.6h-3V23h6.1c4,0,6.13,2.1,6.13,6.55Z"/><polygon class="cls-3" points="326.66 22.96 326.66 22.96 320.33 22.96 320.33 47.22 326.66 47.22 326.66 22.96"/><path class="cls-3" d="M355.27,46.57h0a.66.66,0,0,1,.22.42c0,.23-.22.23-.64.23h-6.33l-8.43-10.77c-.2-.2-.43-.42-.62-.42-.65,0-1.07.42-1.49,1.49a12.08,12.08,0,0,0-.62,4.41v5.29H331v-3c0-5.7,2.11-9.69,6.33-11.38l-7.17-9.28c-.23,0-.23-.22-.23-.42s.23-.22.43-.22h6.32l8.44,10.76a.85.85,0,0,0,.84.42c.65,0,1.07-.42,1.49-1.49a12.3,12.3,0,0,0,.62-4.41V23h6.32v2.95c0,5.9-2.1,9.7-6.32,11.61Z"/></g><g id="English"><path class="cls-3" d="M15.38,76.38c3.37-1.27,5.28-4,5.28-6.75a6.2,6.2,0,0,0-3.37-5.71c-2.11-1.46-4.64-2.11-9.08-2.11A66.49,66.49,0,0,0,0,62.46V92.82a51.85,51.85,0,0,0,6.94.42c5.91,0,9.51-.84,11.81-2.75a8,8,0,0,0,3-6.52C21.71,79.75,18.75,77.22,15.38,76.38ZM5.68,66.26A10.55,10.55,0,0,1,8.86,66c3.79,0,5.9,1.27,5.9,4.22,0,2.53-2.11,4.44-6.13,4.44h-3ZM8.63,89a10.36,10.36,0,0,1-3-.23V78.91H8.43c4,0,7.17,1.46,7.17,4.83C15.6,87.76,12.43,89,8.63,89Z"/><path class="cls-3" d="M43.8,87.54v-8c0-4.84-2.11-9.28-9.47-9.28a16.14,16.14,0,0,0-8.24,1.91l1.07,3.57A14.76,14.76,0,0,1,33.49,74c4,0,4.63,2.53,4.63,4v.43c-8.43-.23-13.72,2.72-13.72,8.43,0,3.37,2.76,6.52,7.17,6.52a8.47,8.47,0,0,0,6.75-3h.23L39,93h5.26A21,21,0,0,1,43.8,87.54Zm-5.68-2.31a2.18,2.18,0,0,1-.22,1,4.43,4.43,0,0,1-4.41,3.18,3.05,3.05,0,0,1-3.38-3.18c0-3.37,4-4.21,8-4.21Z"/><path class="cls-3" d="M49.57,93h5.9V81.44a3.77,3.77,0,0,1,.23-1.69,4.85,4.85,0,0,1,5.06-4.22h1.68V70.25H61.18a6.62,6.62,0,0,0-6.33,4.64h-.22l-.2-4.22H49.37c.2,2.11.2,4.22.2,7.17Z"/><polygon class="cls-3" points="76.1 78.91 76.1 78.91 64.06 78.91 64.06 82.7 76.1 82.7 76.1 78.91"/><polygon class="cls-3" points="85.9 62.04 85.9 62.04 80.22 62.04 80.22 93.02 85.9 93.02 85.9 62.04"/><path class="cls-3" d="M121.37,87.54v-8c0-4.84-2.11-9.28-9.51-9.28a16.1,16.1,0,0,0-8.21,1.91l1,3.57A14.88,14.88,0,0,1,111,74c4,0,4.64,2.53,4.64,4v.43c-8.44-.23-13.69,2.72-13.69,8.43,0,3.37,2.72,6.52,7.16,6.52a8.47,8.47,0,0,0,6.75-3h.2L116.5,93h5.29A35.88,35.88,0,0,1,121.37,87.54Zm-5.71-2.31a2.37,2.37,0,0,1-.2,1A4.45,4.45,0,0,1,111,89.45a3.07,3.07,0,0,1-3.38-3.18c0-3.37,4-4.21,8-4.21Z"/><path class="cls-3" d="M126.73,77.22h0c0-2.53,0-4.64-.19-6.55h5.06l.19,3.37H132a8.65,8.65,0,0,1,7.36-3.79c4,0,8,2.53,8,9.5V93h-5.68V80.37c0-3.15-1.27-5.68-4.44-5.68a4.8,4.8,0,0,0-4.42,3.37,5,5,0,0,0-.22,1.89V93h-5.91Z"/><path class="cls-3" d="M168.37,62h0V80.17c0,5.91,2.72,8.86,6.52,8.86,4.22,0,6.75-3,6.75-8.86V62h5.7V79.75c0,9.47-5.06,13.69-12.65,13.69-7.39,0-12-4-12-13.69V62Z"/><path class="cls-3" d="M192.94,77.22h0c0-2.53,0-4.64-.19-6.55h5.06L198,74h.23a8.66,8.66,0,0,1,7.39-3.79c3.8,0,8,2.53,8,9.5V93h-5.71V80.37c0-3.15-1.27-5.68-4.44-5.68a4.6,4.6,0,0,0-4.42,3.37,4.92,4.92,0,0,0-.42,1.89V93h-5.71Z"/><polygon class="cls-3" points="224.75 93.02 224.75 93.02 219.04 93.02 219.04 70.67 224.75 70.67 224.75 93.02"/><path class="cls-3" d="M221.79,61.39h0c2.11,0,3.38,1.27,3.38,3a3.18,3.18,0,0,1-3.38,3.18,3.12,3.12,0,0,1-3.17-3.18A2.94,2.94,0,0,1,221.79,61.39Z"/><path class="cls-3" d="M234,70.67h0l3.8,11.39c.62,1.91,1,3.59,1.46,5.48h.23c.42-1.89.84-3.57,1.46-5.48l3.6-11.39h6.1L242,93h-5.71l-8.44-22.35Z"/><path class="cls-3" d="M272.16,81c0-4.87-2.3-10.77-9.7-10.77S251.3,76,251.3,82.06c0,7,4.22,11.38,11.81,11.38A19.79,19.79,0,0,0,270.9,92l-.85-3.8a17.34,17.34,0,0,1-6.32,1c-3.57,0-6.75-1.88-7-5.9h15.38Zm-15.38-1.49C257,77.22,258.47,74,262,74c3.8,0,4.86,3.38,4.86,5.49Z"/><path class="cls-3" d="M276.29,77.84h0c0-3,0-5.06-.2-7.17h5.06l.2,4.22h.22a6.56,6.56,0,0,1,6.1-4.64h1.49v5.28h-1.68a5.25,5.25,0,0,0-5.29,4.22c0,.42-.2,1-.2,1.69V93h-5.7Z"/><path class="cls-3" d="M292.22,87.76h0a12.16,12.16,0,0,0,5.91,1.69c2.53,0,3.57-1.07,3.57-2.53s-.84-2.33-3.57-3.18c-4.64-1.68-6.55-4-6.33-6.52,0-4,3.38-7,8.63-7a13.91,13.91,0,0,1,5.91,1.26l-1,4a9.6,9.6,0,0,0-4.87-1.26c-2.1,0-3.14.84-3.14,2.3,0,1.27,1,2.11,4,3.18,4.21,1.27,6.13,3.37,6.13,6.75,0,4-3.18,6.94-9.28,6.94a13.4,13.4,0,0,1-7-1.69Z"/><polygon class="cls-3" points="317.47 93.02 317.47 93.02 311.77 93.02 311.77 70.67 317.47 70.67 317.47 93.02"/><path class="cls-3" d="M314.72,61.39h0a2.92,2.92,0,0,1,3.15,3,3.16,3.16,0,0,1-3.38,3.18,3.12,3.12,0,0,1-3.15-3.18C311.34,62.66,312.61,61.39,314.72,61.39Z"/><path class="cls-3" d="M329.8,65h0v5.68h5.68v4.22H329.8v9.92c0,2.53.84,4,3.15,4a6.41,6.41,0,0,0,2.11-.19l.22,4.21a10.47,10.47,0,0,1-4.22.62A6.51,6.51,0,0,1,326,91.56c-1.26-1.27-1.68-3.18-1.68-6.13V74.89h-3.38V70.67h3.38V66.45Z"/><path class="cls-3" d="M343.07,70.67h0l4,12a16.93,16.93,0,0,1,1.26,4.22h.2c.42-1.27.84-3,1.27-4.44l3.6-11.81h6.1l-5.68,15.18c-3.18,8.43-5.29,12-8,14.34a13,13,0,0,1-6.13,3l-1.26-4.84a7.79,7.79,0,0,0,3.37-1.49A13,13,0,0,0,345,93.24c.2-.42.42-.64.42-1.06,0-.2,0-.43-.42-1l-8.24-20.47Z"/><polygon class="cls-3" points="97.96 60.19 97.96 60.19 92.28 60.19 92.28 93.02 97.96 93.02 97.96 60.19"/></g></g></g></g></g></svg>